<mxfile host="app.diagrams.net" agent="Mozilla/5.0 (Windows NT 10.0; Win64; x64) AppleWebKit/537.36 (KHTML, like Gecko) Chrome/130.0.0.0 Safari/537.36 Edg/130.0.0.0" version="24.8.4">
  <diagram name="Page-1" id="G5_nNXX91zdSf1NrvdMB">
    <mxGraphModel dx="903" dy="510" grid="1" gridSize="10" guides="1" tooltips="1" connect="1" arrows="1" fold="1" page="1" pageScale="1" pageWidth="827" pageHeight="1169" math="0" shadow="0">
      <root>
        <mxCell id="0" />
        <mxCell id="1" parent="0" />
        <mxCell id="ERlJkY3v5EZ0MZNVmNRn-21" value="" style="group" vertex="1" connectable="0" parent="1">
          <mxGeometry x="80" y="140" width="240" height="60" as="geometry" />
        </mxCell>
        <mxCell id="ERlJkY3v5EZ0MZNVmNRn-1" value="" style="rounded=0;whiteSpace=wrap;html=1;" vertex="1" parent="ERlJkY3v5EZ0MZNVmNRn-21">
          <mxGeometry y="20" width="240" height="40" as="geometry" />
        </mxCell>
        <mxCell id="ERlJkY3v5EZ0MZNVmNRn-4" value="" style="endArrow=none;html=1;rounded=0;" edge="1" parent="ERlJkY3v5EZ0MZNVmNRn-21">
          <mxGeometry width="50" height="50" relative="1" as="geometry">
            <mxPoint x="40" y="60" as="sourcePoint" />
            <mxPoint x="40" y="20" as="targetPoint" />
          </mxGeometry>
        </mxCell>
        <mxCell id="ERlJkY3v5EZ0MZNVmNRn-5" value="" style="endArrow=none;html=1;rounded=0;" edge="1" parent="ERlJkY3v5EZ0MZNVmNRn-21">
          <mxGeometry width="50" height="50" relative="1" as="geometry">
            <mxPoint x="80" y="60" as="sourcePoint" />
            <mxPoint x="80" y="20" as="targetPoint" />
          </mxGeometry>
        </mxCell>
        <mxCell id="ERlJkY3v5EZ0MZNVmNRn-6" value="" style="endArrow=none;html=1;rounded=0;" edge="1" parent="ERlJkY3v5EZ0MZNVmNRn-21">
          <mxGeometry width="50" height="50" relative="1" as="geometry">
            <mxPoint x="119.66" y="60" as="sourcePoint" />
            <mxPoint x="119.66" y="20" as="targetPoint" />
          </mxGeometry>
        </mxCell>
        <mxCell id="ERlJkY3v5EZ0MZNVmNRn-7" value="" style="endArrow=none;html=1;rounded=0;" edge="1" parent="ERlJkY3v5EZ0MZNVmNRn-21">
          <mxGeometry width="50" height="50" relative="1" as="geometry">
            <mxPoint x="160" y="60" as="sourcePoint" />
            <mxPoint x="160" y="20" as="targetPoint" />
          </mxGeometry>
        </mxCell>
        <mxCell id="ERlJkY3v5EZ0MZNVmNRn-8" value="" style="endArrow=none;html=1;rounded=0;" edge="1" parent="ERlJkY3v5EZ0MZNVmNRn-21">
          <mxGeometry width="50" height="50" relative="1" as="geometry">
            <mxPoint x="200" y="60" as="sourcePoint" />
            <mxPoint x="200" y="20" as="targetPoint" />
          </mxGeometry>
        </mxCell>
        <mxCell id="ERlJkY3v5EZ0MZNVmNRn-9" value="L3" style="text;strokeColor=none;align=center;fillColor=none;html=1;verticalAlign=middle;whiteSpace=wrap;rounded=0;" vertex="1" parent="ERlJkY3v5EZ0MZNVmNRn-21">
          <mxGeometry x="40" y="20" width="40" height="40" as="geometry" />
        </mxCell>
        <mxCell id="ERlJkY3v5EZ0MZNVmNRn-10" value="L2" style="text;strokeColor=none;align=center;fillColor=none;html=1;verticalAlign=middle;whiteSpace=wrap;rounded=0;" vertex="1" parent="ERlJkY3v5EZ0MZNVmNRn-21">
          <mxGeometry x="80" y="20" width="40" height="40" as="geometry" />
        </mxCell>
        <mxCell id="ERlJkY3v5EZ0MZNVmNRn-11" value="L1" style="text;strokeColor=none;align=center;fillColor=none;html=1;verticalAlign=middle;whiteSpace=wrap;rounded=0;" vertex="1" parent="ERlJkY3v5EZ0MZNVmNRn-21">
          <mxGeometry x="120" y="20" width="40" height="40" as="geometry" />
        </mxCell>
        <mxCell id="ERlJkY3v5EZ0MZNVmNRn-12" value="L0" style="text;strokeColor=none;align=center;fillColor=none;html=1;verticalAlign=middle;whiteSpace=wrap;rounded=0;" vertex="1" parent="ERlJkY3v5EZ0MZNVmNRn-21">
          <mxGeometry x="160" y="20" width="40" height="40" as="geometry" />
        </mxCell>
        <mxCell id="ERlJkY3v5EZ0MZNVmNRn-13" value="OFF" style="text;strokeColor=none;align=center;fillColor=none;html=1;verticalAlign=middle;whiteSpace=wrap;rounded=0;" vertex="1" parent="ERlJkY3v5EZ0MZNVmNRn-21">
          <mxGeometry x="200" y="20" width="40" height="40" as="geometry" />
        </mxCell>
        <mxCell id="ERlJkY3v5EZ0MZNVmNRn-14" value="EXT" style="text;strokeColor=none;align=center;fillColor=none;html=1;verticalAlign=middle;whiteSpace=wrap;rounded=0;" vertex="1" parent="ERlJkY3v5EZ0MZNVmNRn-21">
          <mxGeometry y="20" width="40" height="40" as="geometry" />
        </mxCell>
        <mxCell id="ERlJkY3v5EZ0MZNVmNRn-15" value="9" style="text;strokeColor=none;align=center;fillColor=none;html=1;verticalAlign=middle;whiteSpace=wrap;rounded=0;" vertex="1" parent="ERlJkY3v5EZ0MZNVmNRn-21">
          <mxGeometry x="40" width="40" height="20" as="geometry" />
        </mxCell>
        <mxCell id="ERlJkY3v5EZ0MZNVmNRn-16" value="9" style="text;strokeColor=none;align=center;fillColor=none;html=1;verticalAlign=middle;whiteSpace=wrap;rounded=0;" vertex="1" parent="ERlJkY3v5EZ0MZNVmNRn-21">
          <mxGeometry x="80" width="40" height="20" as="geometry" />
        </mxCell>
        <mxCell id="ERlJkY3v5EZ0MZNVmNRn-17" value="9" style="text;strokeColor=none;align=center;fillColor=none;html=1;verticalAlign=middle;whiteSpace=wrap;rounded=0;" vertex="1" parent="ERlJkY3v5EZ0MZNVmNRn-21">
          <mxGeometry x="120" width="40" height="20" as="geometry" />
        </mxCell>
        <mxCell id="ERlJkY3v5EZ0MZNVmNRn-18" value="9" style="text;strokeColor=none;align=center;fillColor=none;html=1;verticalAlign=middle;whiteSpace=wrap;rounded=0;" vertex="1" parent="ERlJkY3v5EZ0MZNVmNRn-21">
          <mxGeometry x="160" width="40" height="20" as="geometry" />
        </mxCell>
        <mxCell id="ERlJkY3v5EZ0MZNVmNRn-19" value="12" style="text;strokeColor=none;align=center;fillColor=none;html=1;verticalAlign=middle;whiteSpace=wrap;rounded=0;" vertex="1" parent="ERlJkY3v5EZ0MZNVmNRn-21">
          <mxGeometry x="200" width="40" height="20" as="geometry" />
        </mxCell>
        <mxCell id="ERlJkY3v5EZ0MZNVmNRn-23" style="edgeStyle=orthogonalEdgeStyle;rounded=0;orthogonalLoop=1;jettySize=auto;html=1;exitX=0.5;exitY=1;exitDx=0;exitDy=0;entryX=0;entryY=0.667;entryDx=0;entryDy=0;entryPerimeter=0;fillColor=#e51400;strokeColor=#B20000;" edge="1" parent="1" source="ERlJkY3v5EZ0MZNVmNRn-9" target="ERlJkY3v5EZ0MZNVmNRn-22">
          <mxGeometry relative="1" as="geometry" />
        </mxCell>
        <mxCell id="ERlJkY3v5EZ0MZNVmNRn-34" style="edgeStyle=orthogonalEdgeStyle;rounded=0;orthogonalLoop=1;jettySize=auto;html=1;exitX=0.5;exitY=0;exitDx=0;exitDy=0;" edge="1" parent="1" source="ERlJkY3v5EZ0MZNVmNRn-30">
          <mxGeometry relative="1" as="geometry">
            <mxPoint x="159.8571428571429" y="360" as="targetPoint" />
          </mxGeometry>
        </mxCell>
        <mxCell id="ERlJkY3v5EZ0MZNVmNRn-30" value="satp" style="rounded=0;whiteSpace=wrap;html=1;" vertex="1" parent="1">
          <mxGeometry x="140" y="380" width="40" height="20" as="geometry" />
        </mxCell>
        <mxCell id="ERlJkY3v5EZ0MZNVmNRn-48" value="" style="group" vertex="1" connectable="0" parent="1">
          <mxGeometry x="140" y="230" width="110" height="150" as="geometry" />
        </mxCell>
        <mxCell id="ERlJkY3v5EZ0MZNVmNRn-22" value="" style="rounded=0;whiteSpace=wrap;html=1;" vertex="1" parent="ERlJkY3v5EZ0MZNVmNRn-48">
          <mxGeometry x="20" y="10" width="80" height="120" as="geometry" />
        </mxCell>
        <mxCell id="ERlJkY3v5EZ0MZNVmNRn-24" value="" style="endArrow=none;html=1;rounded=0;" edge="1" parent="ERlJkY3v5EZ0MZNVmNRn-48">
          <mxGeometry width="50" height="50" relative="1" as="geometry">
            <mxPoint x="20" y="120" as="sourcePoint" />
            <mxPoint x="100" y="120" as="targetPoint" />
          </mxGeometry>
        </mxCell>
        <mxCell id="ERlJkY3v5EZ0MZNVmNRn-25" value="" style="endArrow=none;html=1;rounded=0;" edge="1" parent="ERlJkY3v5EZ0MZNVmNRn-48">
          <mxGeometry width="50" height="50" relative="1" as="geometry">
            <mxPoint x="20" y="110" as="sourcePoint" />
            <mxPoint x="100" y="110" as="targetPoint" />
          </mxGeometry>
        </mxCell>
        <mxCell id="ERlJkY3v5EZ0MZNVmNRn-26" value="" style="endArrow=none;html=1;rounded=0;" edge="1" parent="ERlJkY3v5EZ0MZNVmNRn-48">
          <mxGeometry width="50" height="50" relative="1" as="geometry">
            <mxPoint x="20" y="90" as="sourcePoint" />
            <mxPoint x="100" y="90" as="targetPoint" />
          </mxGeometry>
        </mxCell>
        <mxCell id="ERlJkY3v5EZ0MZNVmNRn-27" value="" style="endArrow=none;html=1;rounded=0;" edge="1" parent="ERlJkY3v5EZ0MZNVmNRn-48">
          <mxGeometry width="50" height="50" relative="1" as="geometry">
            <mxPoint x="20" y="80" as="sourcePoint" />
            <mxPoint x="100" y="80" as="targetPoint" />
          </mxGeometry>
        </mxCell>
        <mxCell id="ERlJkY3v5EZ0MZNVmNRn-28" value="" style="endArrow=none;html=1;rounded=0;" edge="1" parent="ERlJkY3v5EZ0MZNVmNRn-48">
          <mxGeometry width="50" height="50" relative="1" as="geometry">
            <mxPoint x="20" y="20" as="sourcePoint" />
            <mxPoint x="100" y="20" as="targetPoint" />
          </mxGeometry>
        </mxCell>
        <mxCell id="ERlJkY3v5EZ0MZNVmNRn-29" value="" style="endArrow=none;html=1;rounded=0;exitX=0.5;exitY=1;exitDx=0;exitDy=0;" edge="1" parent="ERlJkY3v5EZ0MZNVmNRn-48">
          <mxGeometry width="50" height="50" relative="1" as="geometry">
            <mxPoint x="70.28999999999999" y="130" as="sourcePoint" />
            <mxPoint x="70" y="10" as="targetPoint" />
          </mxGeometry>
        </mxCell>
        <mxCell id="ERlJkY3v5EZ0MZNVmNRn-35" value="0" style="text;strokeColor=none;align=center;fillColor=none;html=1;verticalAlign=middle;whiteSpace=wrap;rounded=0;" vertex="1" parent="ERlJkY3v5EZ0MZNVmNRn-48">
          <mxGeometry x="10" y="120" width="10" height="10" as="geometry" />
        </mxCell>
        <mxCell id="ERlJkY3v5EZ0MZNVmNRn-36" value="1" style="text;strokeColor=none;align=center;fillColor=none;html=1;verticalAlign=middle;whiteSpace=wrap;rounded=0;" vertex="1" parent="ERlJkY3v5EZ0MZNVmNRn-48">
          <mxGeometry x="10" y="110" width="10" height="10" as="geometry" />
        </mxCell>
        <mxCell id="ERlJkY3v5EZ0MZNVmNRn-37" value="" style="endArrow=classicThin;html=1;rounded=0;endFill=1;strokeWidth=1;endSize=1;" edge="1" parent="ERlJkY3v5EZ0MZNVmNRn-48">
          <mxGeometry width="50" height="50" relative="1" as="geometry">
            <mxPoint x="14.900000000000006" y="110" as="sourcePoint" />
            <mxPoint x="15" y="100" as="targetPoint" />
          </mxGeometry>
        </mxCell>
        <mxCell id="ERlJkY3v5EZ0MZNVmNRn-38" value="Page Directory" style="text;strokeColor=none;align=center;fillColor=none;html=1;verticalAlign=middle;whiteSpace=wrap;rounded=0;" vertex="1" parent="ERlJkY3v5EZ0MZNVmNRn-48">
          <mxGeometry x="20" y="130" width="90" height="20" as="geometry" />
        </mxCell>
        <mxCell id="ERlJkY3v5EZ0MZNVmNRn-39" value="511" style="text;strokeColor=none;align=center;fillColor=none;html=1;verticalAlign=middle;whiteSpace=wrap;rounded=0;" vertex="1" parent="ERlJkY3v5EZ0MZNVmNRn-48">
          <mxGeometry y="10" width="20" height="10" as="geometry" />
        </mxCell>
        <mxCell id="ERlJkY3v5EZ0MZNVmNRn-40" value="44" style="text;strokeColor=none;align=center;fillColor=none;html=1;verticalAlign=middle;whiteSpace=wrap;rounded=0;" vertex="1" parent="ERlJkY3v5EZ0MZNVmNRn-48">
          <mxGeometry x="20" width="50" height="10" as="geometry" />
        </mxCell>
        <mxCell id="ERlJkY3v5EZ0MZNVmNRn-41" value="10" style="text;strokeColor=none;align=center;fillColor=none;html=1;verticalAlign=middle;whiteSpace=wrap;rounded=0;" vertex="1" parent="ERlJkY3v5EZ0MZNVmNRn-48">
          <mxGeometry x="70" width="30" height="10" as="geometry" />
        </mxCell>
        <mxCell id="ERlJkY3v5EZ0MZNVmNRn-42" value="..." style="text;strokeColor=none;align=center;fillColor=none;html=1;verticalAlign=middle;whiteSpace=wrap;rounded=0;" vertex="1" parent="ERlJkY3v5EZ0MZNVmNRn-48">
          <mxGeometry x="30" y="40" width="30" height="10" as="geometry" />
        </mxCell>
        <mxCell id="ERlJkY3v5EZ0MZNVmNRn-43" value="..." style="text;strokeColor=none;align=center;fillColor=none;html=1;verticalAlign=middle;whiteSpace=wrap;rounded=0;" vertex="1" parent="ERlJkY3v5EZ0MZNVmNRn-48">
          <mxGeometry x="70" y="40" width="30" height="10" as="geometry" />
        </mxCell>
        <mxCell id="ERlJkY3v5EZ0MZNVmNRn-44" value="..." style="text;strokeColor=none;align=center;fillColor=none;html=1;verticalAlign=middle;whiteSpace=wrap;rounded=0;" vertex="1" parent="ERlJkY3v5EZ0MZNVmNRn-48">
          <mxGeometry x="30" y="90" width="30" height="10" as="geometry" />
        </mxCell>
        <mxCell id="ERlJkY3v5EZ0MZNVmNRn-45" value="..." style="text;strokeColor=none;align=center;fillColor=none;html=1;verticalAlign=middle;whiteSpace=wrap;rounded=0;" vertex="1" parent="ERlJkY3v5EZ0MZNVmNRn-48">
          <mxGeometry x="70" y="90" width="30" height="10" as="geometry" />
        </mxCell>
        <mxCell id="ERlJkY3v5EZ0MZNVmNRn-46" value="&lt;font style=&quot;font-size: 7px;&quot;&gt;Flags&lt;/font&gt;" style="text;strokeColor=none;align=center;fillColor=none;html=1;verticalAlign=middle;whiteSpace=wrap;rounded=0;" vertex="1" parent="ERlJkY3v5EZ0MZNVmNRn-48">
          <mxGeometry x="70" y="80" width="30" height="10" as="geometry" />
        </mxCell>
        <mxCell id="ERlJkY3v5EZ0MZNVmNRn-47" value="&lt;font style=&quot;font-size: 7px;&quot;&gt;PPN&lt;/font&gt;" style="text;strokeColor=none;align=center;fillColor=none;html=1;verticalAlign=middle;whiteSpace=wrap;rounded=0;" vertex="1" parent="ERlJkY3v5EZ0MZNVmNRn-48">
          <mxGeometry x="30" y="80" width="30" height="10" as="geometry" />
        </mxCell>
        <mxCell id="ERlJkY3v5EZ0MZNVmNRn-49" value="" style="group" vertex="1" connectable="0" parent="1">
          <mxGeometry x="260" y="260" width="110" height="150" as="geometry" />
        </mxCell>
        <mxCell id="ERlJkY3v5EZ0MZNVmNRn-50" value="" style="rounded=0;whiteSpace=wrap;html=1;" vertex="1" parent="ERlJkY3v5EZ0MZNVmNRn-49">
          <mxGeometry x="20" y="10" width="80" height="120" as="geometry" />
        </mxCell>
        <mxCell id="ERlJkY3v5EZ0MZNVmNRn-51" value="" style="endArrow=none;html=1;rounded=0;" edge="1" parent="ERlJkY3v5EZ0MZNVmNRn-49">
          <mxGeometry width="50" height="50" relative="1" as="geometry">
            <mxPoint x="20" y="120" as="sourcePoint" />
            <mxPoint x="100" y="120" as="targetPoint" />
          </mxGeometry>
        </mxCell>
        <mxCell id="ERlJkY3v5EZ0MZNVmNRn-52" value="" style="endArrow=none;html=1;rounded=0;" edge="1" parent="ERlJkY3v5EZ0MZNVmNRn-49">
          <mxGeometry width="50" height="50" relative="1" as="geometry">
            <mxPoint x="20" y="110" as="sourcePoint" />
            <mxPoint x="100" y="110" as="targetPoint" />
          </mxGeometry>
        </mxCell>
        <mxCell id="ERlJkY3v5EZ0MZNVmNRn-53" value="" style="endArrow=none;html=1;rounded=0;" edge="1" parent="ERlJkY3v5EZ0MZNVmNRn-49">
          <mxGeometry width="50" height="50" relative="1" as="geometry">
            <mxPoint x="20" y="90" as="sourcePoint" />
            <mxPoint x="100" y="90" as="targetPoint" />
          </mxGeometry>
        </mxCell>
        <mxCell id="ERlJkY3v5EZ0MZNVmNRn-54" value="" style="endArrow=none;html=1;rounded=0;" edge="1" parent="ERlJkY3v5EZ0MZNVmNRn-49">
          <mxGeometry width="50" height="50" relative="1" as="geometry">
            <mxPoint x="20" y="80" as="sourcePoint" />
            <mxPoint x="100" y="80" as="targetPoint" />
          </mxGeometry>
        </mxCell>
        <mxCell id="ERlJkY3v5EZ0MZNVmNRn-55" value="" style="endArrow=none;html=1;rounded=0;" edge="1" parent="ERlJkY3v5EZ0MZNVmNRn-49">
          <mxGeometry width="50" height="50" relative="1" as="geometry">
            <mxPoint x="20" y="20" as="sourcePoint" />
            <mxPoint x="100" y="20" as="targetPoint" />
          </mxGeometry>
        </mxCell>
        <mxCell id="ERlJkY3v5EZ0MZNVmNRn-56" value="" style="endArrow=none;html=1;rounded=0;exitX=0.5;exitY=1;exitDx=0;exitDy=0;" edge="1" parent="ERlJkY3v5EZ0MZNVmNRn-49">
          <mxGeometry width="50" height="50" relative="1" as="geometry">
            <mxPoint x="70.28999999999999" y="130" as="sourcePoint" />
            <mxPoint x="70" y="10" as="targetPoint" />
          </mxGeometry>
        </mxCell>
        <mxCell id="ERlJkY3v5EZ0MZNVmNRn-57" value="0" style="text;strokeColor=none;align=center;fillColor=none;html=1;verticalAlign=middle;whiteSpace=wrap;rounded=0;" vertex="1" parent="ERlJkY3v5EZ0MZNVmNRn-49">
          <mxGeometry x="10" y="120" width="10" height="10" as="geometry" />
        </mxCell>
        <mxCell id="ERlJkY3v5EZ0MZNVmNRn-58" value="1" style="text;strokeColor=none;align=center;fillColor=none;html=1;verticalAlign=middle;whiteSpace=wrap;rounded=0;" vertex="1" parent="ERlJkY3v5EZ0MZNVmNRn-49">
          <mxGeometry x="10" y="110" width="10" height="10" as="geometry" />
        </mxCell>
        <mxCell id="ERlJkY3v5EZ0MZNVmNRn-59" value="" style="endArrow=classicThin;html=1;rounded=0;endFill=1;strokeWidth=1;endSize=1;" edge="1" parent="ERlJkY3v5EZ0MZNVmNRn-49">
          <mxGeometry width="50" height="50" relative="1" as="geometry">
            <mxPoint x="14.900000000000006" y="110" as="sourcePoint" />
            <mxPoint x="15" y="100" as="targetPoint" />
          </mxGeometry>
        </mxCell>
        <mxCell id="ERlJkY3v5EZ0MZNVmNRn-60" value="Page Directory" style="text;strokeColor=none;align=center;fillColor=none;html=1;verticalAlign=middle;whiteSpace=wrap;rounded=0;" vertex="1" parent="ERlJkY3v5EZ0MZNVmNRn-49">
          <mxGeometry x="20" y="130" width="90" height="20" as="geometry" />
        </mxCell>
        <mxCell id="ERlJkY3v5EZ0MZNVmNRn-61" value="511" style="text;strokeColor=none;align=center;fillColor=none;html=1;verticalAlign=middle;whiteSpace=wrap;rounded=0;" vertex="1" parent="ERlJkY3v5EZ0MZNVmNRn-49">
          <mxGeometry y="10" width="20" height="10" as="geometry" />
        </mxCell>
        <mxCell id="ERlJkY3v5EZ0MZNVmNRn-62" value="44" style="text;strokeColor=none;align=center;fillColor=none;html=1;verticalAlign=middle;whiteSpace=wrap;rounded=0;" vertex="1" parent="ERlJkY3v5EZ0MZNVmNRn-49">
          <mxGeometry x="20" width="50" height="10" as="geometry" />
        </mxCell>
        <mxCell id="ERlJkY3v5EZ0MZNVmNRn-63" value="10" style="text;strokeColor=none;align=center;fillColor=none;html=1;verticalAlign=middle;whiteSpace=wrap;rounded=0;" vertex="1" parent="ERlJkY3v5EZ0MZNVmNRn-49">
          <mxGeometry x="70" width="30" height="10" as="geometry" />
        </mxCell>
        <mxCell id="ERlJkY3v5EZ0MZNVmNRn-64" value="..." style="text;strokeColor=none;align=center;fillColor=none;html=1;verticalAlign=middle;whiteSpace=wrap;rounded=0;" vertex="1" parent="ERlJkY3v5EZ0MZNVmNRn-49">
          <mxGeometry x="30" y="40" width="30" height="10" as="geometry" />
        </mxCell>
        <mxCell id="ERlJkY3v5EZ0MZNVmNRn-65" value="..." style="text;strokeColor=none;align=center;fillColor=none;html=1;verticalAlign=middle;whiteSpace=wrap;rounded=0;" vertex="1" parent="ERlJkY3v5EZ0MZNVmNRn-49">
          <mxGeometry x="70" y="40" width="30" height="10" as="geometry" />
        </mxCell>
        <mxCell id="ERlJkY3v5EZ0MZNVmNRn-66" value="..." style="text;strokeColor=none;align=center;fillColor=none;html=1;verticalAlign=middle;whiteSpace=wrap;rounded=0;" vertex="1" parent="ERlJkY3v5EZ0MZNVmNRn-49">
          <mxGeometry x="30" y="90" width="30" height="10" as="geometry" />
        </mxCell>
        <mxCell id="ERlJkY3v5EZ0MZNVmNRn-67" value="..." style="text;strokeColor=none;align=center;fillColor=none;html=1;verticalAlign=middle;whiteSpace=wrap;rounded=0;" vertex="1" parent="ERlJkY3v5EZ0MZNVmNRn-49">
          <mxGeometry x="70" y="90" width="30" height="10" as="geometry" />
        </mxCell>
        <mxCell id="ERlJkY3v5EZ0MZNVmNRn-68" value="&lt;font style=&quot;font-size: 7px;&quot;&gt;Flags&lt;/font&gt;" style="text;strokeColor=none;align=center;fillColor=none;html=1;verticalAlign=middle;whiteSpace=wrap;rounded=0;" vertex="1" parent="ERlJkY3v5EZ0MZNVmNRn-49">
          <mxGeometry x="70" y="80" width="30" height="10" as="geometry" />
        </mxCell>
        <mxCell id="ERlJkY3v5EZ0MZNVmNRn-69" value="&lt;font style=&quot;font-size: 7px;&quot;&gt;PPN&lt;/font&gt;" style="text;strokeColor=none;align=center;fillColor=none;html=1;verticalAlign=middle;whiteSpace=wrap;rounded=0;" vertex="1" parent="ERlJkY3v5EZ0MZNVmNRn-49">
          <mxGeometry x="30" y="80" width="30" height="10" as="geometry" />
        </mxCell>
        <mxCell id="ERlJkY3v5EZ0MZNVmNRn-70" value="" style="group" vertex="1" connectable="0" parent="1">
          <mxGeometry x="380" y="290" width="110" height="150" as="geometry" />
        </mxCell>
        <mxCell id="ERlJkY3v5EZ0MZNVmNRn-71" value="" style="rounded=0;whiteSpace=wrap;html=1;" vertex="1" parent="ERlJkY3v5EZ0MZNVmNRn-70">
          <mxGeometry x="20" y="10" width="80" height="120" as="geometry" />
        </mxCell>
        <mxCell id="ERlJkY3v5EZ0MZNVmNRn-72" value="" style="endArrow=none;html=1;rounded=0;" edge="1" parent="ERlJkY3v5EZ0MZNVmNRn-70">
          <mxGeometry width="50" height="50" relative="1" as="geometry">
            <mxPoint x="20" y="120" as="sourcePoint" />
            <mxPoint x="100" y="120" as="targetPoint" />
          </mxGeometry>
        </mxCell>
        <mxCell id="ERlJkY3v5EZ0MZNVmNRn-73" value="" style="endArrow=none;html=1;rounded=0;" edge="1" parent="ERlJkY3v5EZ0MZNVmNRn-70">
          <mxGeometry width="50" height="50" relative="1" as="geometry">
            <mxPoint x="20" y="110" as="sourcePoint" />
            <mxPoint x="100" y="110" as="targetPoint" />
          </mxGeometry>
        </mxCell>
        <mxCell id="ERlJkY3v5EZ0MZNVmNRn-74" value="" style="endArrow=none;html=1;rounded=0;" edge="1" parent="ERlJkY3v5EZ0MZNVmNRn-70">
          <mxGeometry width="50" height="50" relative="1" as="geometry">
            <mxPoint x="20" y="90" as="sourcePoint" />
            <mxPoint x="100" y="90" as="targetPoint" />
          </mxGeometry>
        </mxCell>
        <mxCell id="ERlJkY3v5EZ0MZNVmNRn-75" value="" style="endArrow=none;html=1;rounded=0;" edge="1" parent="ERlJkY3v5EZ0MZNVmNRn-70">
          <mxGeometry width="50" height="50" relative="1" as="geometry">
            <mxPoint x="20" y="80" as="sourcePoint" />
            <mxPoint x="100" y="80" as="targetPoint" />
          </mxGeometry>
        </mxCell>
        <mxCell id="ERlJkY3v5EZ0MZNVmNRn-76" value="" style="endArrow=none;html=1;rounded=0;" edge="1" parent="ERlJkY3v5EZ0MZNVmNRn-70">
          <mxGeometry width="50" height="50" relative="1" as="geometry">
            <mxPoint x="20" y="20" as="sourcePoint" />
            <mxPoint x="100" y="20" as="targetPoint" />
          </mxGeometry>
        </mxCell>
        <mxCell id="ERlJkY3v5EZ0MZNVmNRn-77" value="" style="endArrow=none;html=1;rounded=0;exitX=0.5;exitY=1;exitDx=0;exitDy=0;" edge="1" parent="ERlJkY3v5EZ0MZNVmNRn-70">
          <mxGeometry width="50" height="50" relative="1" as="geometry">
            <mxPoint x="70.28999999999999" y="130" as="sourcePoint" />
            <mxPoint x="70" y="10" as="targetPoint" />
          </mxGeometry>
        </mxCell>
        <mxCell id="ERlJkY3v5EZ0MZNVmNRn-78" value="0" style="text;strokeColor=none;align=center;fillColor=none;html=1;verticalAlign=middle;whiteSpace=wrap;rounded=0;" vertex="1" parent="ERlJkY3v5EZ0MZNVmNRn-70">
          <mxGeometry x="10" y="120" width="10" height="10" as="geometry" />
        </mxCell>
        <mxCell id="ERlJkY3v5EZ0MZNVmNRn-79" value="1" style="text;strokeColor=none;align=center;fillColor=none;html=1;verticalAlign=middle;whiteSpace=wrap;rounded=0;" vertex="1" parent="ERlJkY3v5EZ0MZNVmNRn-70">
          <mxGeometry x="10" y="110" width="10" height="10" as="geometry" />
        </mxCell>
        <mxCell id="ERlJkY3v5EZ0MZNVmNRn-80" value="" style="endArrow=classicThin;html=1;rounded=0;endFill=1;strokeWidth=1;endSize=1;" edge="1" parent="ERlJkY3v5EZ0MZNVmNRn-70">
          <mxGeometry width="50" height="50" relative="1" as="geometry">
            <mxPoint x="14.900000000000006" y="110" as="sourcePoint" />
            <mxPoint x="15" y="100" as="targetPoint" />
          </mxGeometry>
        </mxCell>
        <mxCell id="ERlJkY3v5EZ0MZNVmNRn-81" value="Page Directory" style="text;strokeColor=none;align=center;fillColor=none;html=1;verticalAlign=middle;whiteSpace=wrap;rounded=0;" vertex="1" parent="ERlJkY3v5EZ0MZNVmNRn-70">
          <mxGeometry x="20" y="130" width="90" height="20" as="geometry" />
        </mxCell>
        <mxCell id="ERlJkY3v5EZ0MZNVmNRn-82" value="511" style="text;strokeColor=none;align=center;fillColor=none;html=1;verticalAlign=middle;whiteSpace=wrap;rounded=0;" vertex="1" parent="ERlJkY3v5EZ0MZNVmNRn-70">
          <mxGeometry y="10" width="20" height="10" as="geometry" />
        </mxCell>
        <mxCell id="ERlJkY3v5EZ0MZNVmNRn-83" value="44" style="text;strokeColor=none;align=center;fillColor=none;html=1;verticalAlign=middle;whiteSpace=wrap;rounded=0;" vertex="1" parent="ERlJkY3v5EZ0MZNVmNRn-70">
          <mxGeometry x="20" width="50" height="10" as="geometry" />
        </mxCell>
        <mxCell id="ERlJkY3v5EZ0MZNVmNRn-84" value="10" style="text;strokeColor=none;align=center;fillColor=none;html=1;verticalAlign=middle;whiteSpace=wrap;rounded=0;" vertex="1" parent="ERlJkY3v5EZ0MZNVmNRn-70">
          <mxGeometry x="70" width="30" height="10" as="geometry" />
        </mxCell>
        <mxCell id="ERlJkY3v5EZ0MZNVmNRn-85" value="..." style="text;strokeColor=none;align=center;fillColor=none;html=1;verticalAlign=middle;whiteSpace=wrap;rounded=0;" vertex="1" parent="ERlJkY3v5EZ0MZNVmNRn-70">
          <mxGeometry x="30" y="40" width="30" height="10" as="geometry" />
        </mxCell>
        <mxCell id="ERlJkY3v5EZ0MZNVmNRn-86" value="..." style="text;strokeColor=none;align=center;fillColor=none;html=1;verticalAlign=middle;whiteSpace=wrap;rounded=0;" vertex="1" parent="ERlJkY3v5EZ0MZNVmNRn-70">
          <mxGeometry x="70" y="40" width="30" height="10" as="geometry" />
        </mxCell>
        <mxCell id="ERlJkY3v5EZ0MZNVmNRn-87" value="..." style="text;strokeColor=none;align=center;fillColor=none;html=1;verticalAlign=middle;whiteSpace=wrap;rounded=0;" vertex="1" parent="ERlJkY3v5EZ0MZNVmNRn-70">
          <mxGeometry x="30" y="90" width="30" height="10" as="geometry" />
        </mxCell>
        <mxCell id="ERlJkY3v5EZ0MZNVmNRn-88" value="..." style="text;strokeColor=none;align=center;fillColor=none;html=1;verticalAlign=middle;whiteSpace=wrap;rounded=0;" vertex="1" parent="ERlJkY3v5EZ0MZNVmNRn-70">
          <mxGeometry x="70" y="90" width="30" height="10" as="geometry" />
        </mxCell>
        <mxCell id="ERlJkY3v5EZ0MZNVmNRn-89" value="&lt;font style=&quot;font-size: 7px;&quot;&gt;Flags&lt;/font&gt;" style="text;strokeColor=none;align=center;fillColor=none;html=1;verticalAlign=middle;whiteSpace=wrap;rounded=0;" vertex="1" parent="ERlJkY3v5EZ0MZNVmNRn-70">
          <mxGeometry x="70" y="80" width="30" height="10" as="geometry" />
        </mxCell>
        <mxCell id="ERlJkY3v5EZ0MZNVmNRn-90" value="&lt;font style=&quot;font-size: 7px;&quot;&gt;PPN&lt;/font&gt;" style="text;strokeColor=none;align=center;fillColor=none;html=1;verticalAlign=middle;whiteSpace=wrap;rounded=0;" vertex="1" parent="ERlJkY3v5EZ0MZNVmNRn-70">
          <mxGeometry x="30" y="80" width="30" height="10" as="geometry" />
        </mxCell>
        <mxCell id="ERlJkY3v5EZ0MZNVmNRn-92" value="" style="group" vertex="1" connectable="0" parent="1">
          <mxGeometry x="500" y="320" width="110" height="150" as="geometry" />
        </mxCell>
        <mxCell id="ERlJkY3v5EZ0MZNVmNRn-93" value="" style="rounded=0;whiteSpace=wrap;html=1;" vertex="1" parent="ERlJkY3v5EZ0MZNVmNRn-92">
          <mxGeometry x="20" y="10" width="80" height="120" as="geometry" />
        </mxCell>
        <mxCell id="ERlJkY3v5EZ0MZNVmNRn-94" value="" style="endArrow=none;html=1;rounded=0;" edge="1" parent="ERlJkY3v5EZ0MZNVmNRn-92">
          <mxGeometry width="50" height="50" relative="1" as="geometry">
            <mxPoint x="20" y="120" as="sourcePoint" />
            <mxPoint x="100" y="120" as="targetPoint" />
          </mxGeometry>
        </mxCell>
        <mxCell id="ERlJkY3v5EZ0MZNVmNRn-95" value="" style="endArrow=none;html=1;rounded=0;" edge="1" parent="ERlJkY3v5EZ0MZNVmNRn-92">
          <mxGeometry width="50" height="50" relative="1" as="geometry">
            <mxPoint x="20" y="110" as="sourcePoint" />
            <mxPoint x="100" y="110" as="targetPoint" />
          </mxGeometry>
        </mxCell>
        <mxCell id="ERlJkY3v5EZ0MZNVmNRn-96" value="" style="endArrow=none;html=1;rounded=0;" edge="1" parent="ERlJkY3v5EZ0MZNVmNRn-92">
          <mxGeometry width="50" height="50" relative="1" as="geometry">
            <mxPoint x="20" y="90" as="sourcePoint" />
            <mxPoint x="100" y="90" as="targetPoint" />
          </mxGeometry>
        </mxCell>
        <mxCell id="ERlJkY3v5EZ0MZNVmNRn-97" value="" style="endArrow=none;html=1;rounded=0;" edge="1" parent="ERlJkY3v5EZ0MZNVmNRn-92">
          <mxGeometry width="50" height="50" relative="1" as="geometry">
            <mxPoint x="20" y="80" as="sourcePoint" />
            <mxPoint x="100" y="80" as="targetPoint" />
          </mxGeometry>
        </mxCell>
        <mxCell id="ERlJkY3v5EZ0MZNVmNRn-98" value="" style="endArrow=none;html=1;rounded=0;" edge="1" parent="ERlJkY3v5EZ0MZNVmNRn-92">
          <mxGeometry width="50" height="50" relative="1" as="geometry">
            <mxPoint x="20" y="20" as="sourcePoint" />
            <mxPoint x="100" y="20" as="targetPoint" />
          </mxGeometry>
        </mxCell>
        <mxCell id="ERlJkY3v5EZ0MZNVmNRn-99" value="" style="endArrow=none;html=1;rounded=0;exitX=0.5;exitY=1;exitDx=0;exitDy=0;" edge="1" parent="ERlJkY3v5EZ0MZNVmNRn-92">
          <mxGeometry width="50" height="50" relative="1" as="geometry">
            <mxPoint x="70.28999999999999" y="130" as="sourcePoint" />
            <mxPoint x="70" y="10" as="targetPoint" />
          </mxGeometry>
        </mxCell>
        <mxCell id="ERlJkY3v5EZ0MZNVmNRn-100" value="0" style="text;strokeColor=none;align=center;fillColor=none;html=1;verticalAlign=middle;whiteSpace=wrap;rounded=0;" vertex="1" parent="ERlJkY3v5EZ0MZNVmNRn-92">
          <mxGeometry x="10" y="120" width="10" height="10" as="geometry" />
        </mxCell>
        <mxCell id="ERlJkY3v5EZ0MZNVmNRn-101" value="1" style="text;strokeColor=none;align=center;fillColor=none;html=1;verticalAlign=middle;whiteSpace=wrap;rounded=0;" vertex="1" parent="ERlJkY3v5EZ0MZNVmNRn-92">
          <mxGeometry x="10" y="110" width="10" height="10" as="geometry" />
        </mxCell>
        <mxCell id="ERlJkY3v5EZ0MZNVmNRn-102" value="" style="endArrow=classicThin;html=1;rounded=0;endFill=1;strokeWidth=1;endSize=1;" edge="1" parent="ERlJkY3v5EZ0MZNVmNRn-92">
          <mxGeometry width="50" height="50" relative="1" as="geometry">
            <mxPoint x="14.900000000000006" y="110" as="sourcePoint" />
            <mxPoint x="15" y="100" as="targetPoint" />
          </mxGeometry>
        </mxCell>
        <mxCell id="ERlJkY3v5EZ0MZNVmNRn-103" value="Page Directory" style="text;strokeColor=none;align=center;fillColor=none;html=1;verticalAlign=middle;whiteSpace=wrap;rounded=0;" vertex="1" parent="ERlJkY3v5EZ0MZNVmNRn-92">
          <mxGeometry x="20" y="130" width="90" height="20" as="geometry" />
        </mxCell>
        <mxCell id="ERlJkY3v5EZ0MZNVmNRn-104" value="511" style="text;strokeColor=none;align=center;fillColor=none;html=1;verticalAlign=middle;whiteSpace=wrap;rounded=0;" vertex="1" parent="ERlJkY3v5EZ0MZNVmNRn-92">
          <mxGeometry y="10" width="20" height="10" as="geometry" />
        </mxCell>
        <mxCell id="ERlJkY3v5EZ0MZNVmNRn-105" value="44" style="text;strokeColor=none;align=center;fillColor=none;html=1;verticalAlign=middle;whiteSpace=wrap;rounded=0;" vertex="1" parent="ERlJkY3v5EZ0MZNVmNRn-92">
          <mxGeometry x="20" width="50" height="10" as="geometry" />
        </mxCell>
        <mxCell id="ERlJkY3v5EZ0MZNVmNRn-106" value="10" style="text;strokeColor=none;align=center;fillColor=none;html=1;verticalAlign=middle;whiteSpace=wrap;rounded=0;" vertex="1" parent="ERlJkY3v5EZ0MZNVmNRn-92">
          <mxGeometry x="70" width="30" height="10" as="geometry" />
        </mxCell>
        <mxCell id="ERlJkY3v5EZ0MZNVmNRn-107" value="..." style="text;strokeColor=none;align=center;fillColor=none;html=1;verticalAlign=middle;whiteSpace=wrap;rounded=0;" vertex="1" parent="ERlJkY3v5EZ0MZNVmNRn-92">
          <mxGeometry x="30" y="40" width="30" height="10" as="geometry" />
        </mxCell>
        <mxCell id="ERlJkY3v5EZ0MZNVmNRn-108" value="..." style="text;strokeColor=none;align=center;fillColor=none;html=1;verticalAlign=middle;whiteSpace=wrap;rounded=0;" vertex="1" parent="ERlJkY3v5EZ0MZNVmNRn-92">
          <mxGeometry x="70" y="40" width="30" height="10" as="geometry" />
        </mxCell>
        <mxCell id="ERlJkY3v5EZ0MZNVmNRn-109" value="..." style="text;strokeColor=none;align=center;fillColor=none;html=1;verticalAlign=middle;whiteSpace=wrap;rounded=0;" vertex="1" parent="ERlJkY3v5EZ0MZNVmNRn-92">
          <mxGeometry x="30" y="90" width="30" height="10" as="geometry" />
        </mxCell>
        <mxCell id="ERlJkY3v5EZ0MZNVmNRn-110" value="..." style="text;strokeColor=none;align=center;fillColor=none;html=1;verticalAlign=middle;whiteSpace=wrap;rounded=0;" vertex="1" parent="ERlJkY3v5EZ0MZNVmNRn-92">
          <mxGeometry x="70" y="90" width="30" height="10" as="geometry" />
        </mxCell>
        <mxCell id="ERlJkY3v5EZ0MZNVmNRn-111" value="&lt;font style=&quot;font-size: 7px;&quot;&gt;Flags&lt;/font&gt;" style="text;strokeColor=none;align=center;fillColor=none;html=1;verticalAlign=middle;whiteSpace=wrap;rounded=0;" vertex="1" parent="ERlJkY3v5EZ0MZNVmNRn-92">
          <mxGeometry x="70" y="80" width="30" height="10" as="geometry" />
        </mxCell>
        <mxCell id="ERlJkY3v5EZ0MZNVmNRn-112" value="&lt;font style=&quot;font-size: 7px;&quot;&gt;PPN&lt;/font&gt;" style="text;strokeColor=none;align=center;fillColor=none;html=1;verticalAlign=middle;whiteSpace=wrap;rounded=0;" vertex="1" parent="ERlJkY3v5EZ0MZNVmNRn-92">
          <mxGeometry x="30" y="80" width="30" height="10" as="geometry" />
        </mxCell>
        <mxCell id="ERlJkY3v5EZ0MZNVmNRn-113" style="edgeStyle=orthogonalEdgeStyle;rounded=0;orthogonalLoop=1;jettySize=auto;html=1;exitX=0.5;exitY=1;exitDx=0;exitDy=0;entryX=0;entryY=0;entryDx=0;entryDy=0;fillColor=#e51400;strokeColor=#B20000;" edge="1" parent="1" source="ERlJkY3v5EZ0MZNVmNRn-47" target="ERlJkY3v5EZ0MZNVmNRn-60">
          <mxGeometry relative="1" as="geometry">
            <Array as="points">
              <mxPoint x="185" y="420" />
              <mxPoint x="280" y="420" />
            </Array>
          </mxGeometry>
        </mxCell>
        <mxCell id="ERlJkY3v5EZ0MZNVmNRn-115" style="edgeStyle=orthogonalEdgeStyle;rounded=0;orthogonalLoop=1;jettySize=auto;html=1;exitX=0.5;exitY=0;exitDx=0;exitDy=0;entryX=0;entryY=0;entryDx=0;entryDy=0;fillColor=#e51400;strokeColor=#B20000;" edge="1" parent="1" source="ERlJkY3v5EZ0MZNVmNRn-66" target="ERlJkY3v5EZ0MZNVmNRn-81">
          <mxGeometry relative="1" as="geometry">
            <Array as="points">
              <mxPoint x="305" y="450" />
              <mxPoint x="400" y="450" />
            </Array>
          </mxGeometry>
        </mxCell>
        <mxCell id="ERlJkY3v5EZ0MZNVmNRn-117" style="edgeStyle=orthogonalEdgeStyle;rounded=0;orthogonalLoop=1;jettySize=auto;html=1;exitX=0.5;exitY=0;exitDx=0;exitDy=0;entryX=0;entryY=0;entryDx=0;entryDy=0;fillColor=#e51400;strokeColor=#B20000;" edge="1" parent="1" source="ERlJkY3v5EZ0MZNVmNRn-87" target="ERlJkY3v5EZ0MZNVmNRn-103">
          <mxGeometry relative="1" as="geometry">
            <Array as="points">
              <mxPoint x="425" y="480" />
              <mxPoint x="520" y="480" />
            </Array>
          </mxGeometry>
        </mxCell>
        <mxCell id="ERlJkY3v5EZ0MZNVmNRn-124" style="edgeStyle=orthogonalEdgeStyle;rounded=0;orthogonalLoop=1;jettySize=auto;html=1;exitX=0.5;exitY=1;exitDx=0;exitDy=0;entryX=0.5;entryY=1;entryDx=0;entryDy=0;fillColor=#0050ef;strokeColor=#001DBC;" edge="1" parent="1" source="ERlJkY3v5EZ0MZNVmNRn-13" target="ERlJkY3v5EZ0MZNVmNRn-121">
          <mxGeometry relative="1" as="geometry" />
        </mxCell>
        <mxCell id="ERlJkY3v5EZ0MZNVmNRn-126" value="" style="group" vertex="1" connectable="0" parent="1">
          <mxGeometry x="520" y="140" width="120" height="60" as="geometry" />
        </mxCell>
        <mxCell id="ERlJkY3v5EZ0MZNVmNRn-118" value="" style="rounded=0;whiteSpace=wrap;html=1;" vertex="1" parent="ERlJkY3v5EZ0MZNVmNRn-126">
          <mxGeometry y="20" width="120" height="40" as="geometry" />
        </mxCell>
        <mxCell id="ERlJkY3v5EZ0MZNVmNRn-119" value="" style="endArrow=none;html=1;rounded=0;" edge="1" parent="ERlJkY3v5EZ0MZNVmNRn-126">
          <mxGeometry width="50" height="50" relative="1" as="geometry">
            <mxPoint x="80" y="60" as="sourcePoint" />
            <mxPoint x="80" y="20" as="targetPoint" />
          </mxGeometry>
        </mxCell>
        <mxCell id="ERlJkY3v5EZ0MZNVmNRn-120" value="PPN" style="text;strokeColor=none;align=center;fillColor=none;html=1;verticalAlign=middle;whiteSpace=wrap;rounded=0;" vertex="1" parent="ERlJkY3v5EZ0MZNVmNRn-126">
          <mxGeometry y="20" width="80" height="40" as="geometry" />
        </mxCell>
        <mxCell id="ERlJkY3v5EZ0MZNVmNRn-121" value="OFF" style="text;strokeColor=none;align=center;fillColor=none;html=1;verticalAlign=middle;whiteSpace=wrap;rounded=0;" vertex="1" parent="ERlJkY3v5EZ0MZNVmNRn-126">
          <mxGeometry x="80" y="20" width="40" height="40" as="geometry" />
        </mxCell>
        <mxCell id="ERlJkY3v5EZ0MZNVmNRn-122" value="44" style="text;strokeColor=none;align=center;fillColor=none;html=1;verticalAlign=middle;whiteSpace=wrap;rounded=0;" vertex="1" parent="ERlJkY3v5EZ0MZNVmNRn-126">
          <mxGeometry width="80" height="20" as="geometry" />
        </mxCell>
        <mxCell id="ERlJkY3v5EZ0MZNVmNRn-123" value="12" style="text;strokeColor=none;align=center;fillColor=none;html=1;verticalAlign=middle;whiteSpace=wrap;rounded=0;" vertex="1" parent="ERlJkY3v5EZ0MZNVmNRn-126">
          <mxGeometry x="80" width="40" height="20" as="geometry" />
        </mxCell>
        <mxCell id="ERlJkY3v5EZ0MZNVmNRn-130" style="edgeStyle=orthogonalEdgeStyle;rounded=0;orthogonalLoop=1;jettySize=auto;html=1;exitX=0.25;exitY=0;exitDx=0;exitDy=0;entryX=0.214;entryY=0.975;entryDx=0;entryDy=0;entryPerimeter=0;fillColor=#0050ef;strokeColor=#001DBC;" edge="1" parent="1" source="ERlJkY3v5EZ0MZNVmNRn-112" target="ERlJkY3v5EZ0MZNVmNRn-120">
          <mxGeometry relative="1" as="geometry" />
        </mxCell>
        <mxCell id="ERlJkY3v5EZ0MZNVmNRn-131" value="" style="endArrow=classic;html=1;rounded=0;" edge="1" parent="1">
          <mxGeometry width="50" height="50" relative="1" as="geometry">
            <mxPoint x="50" y="180" as="sourcePoint" />
            <mxPoint x="80" y="180" as="targetPoint" />
          </mxGeometry>
        </mxCell>
        <mxCell id="ERlJkY3v5EZ0MZNVmNRn-132" value="Virtual Address" style="text;strokeColor=none;align=center;fillColor=none;html=1;verticalAlign=middle;whiteSpace=wrap;rounded=0;" vertex="1" parent="1">
          <mxGeometry x="80" y="120" width="240" height="20" as="geometry" />
        </mxCell>
        <mxCell id="ERlJkY3v5EZ0MZNVmNRn-133" value="Physical Address" style="text;strokeColor=none;align=center;fillColor=none;html=1;verticalAlign=middle;whiteSpace=wrap;rounded=0;" vertex="1" parent="1">
          <mxGeometry x="520" y="120" width="120" height="20" as="geometry" />
        </mxCell>
        <mxCell id="ERlJkY3v5EZ0MZNVmNRn-136" value="" style="edgeStyle=none;orthogonalLoop=1;jettySize=auto;html=1;rounded=0;exitX=0.5;exitY=1;exitDx=0;exitDy=0;fillColor=#e51400;strokeColor=#B20000;" edge="1" parent="1" source="ERlJkY3v5EZ0MZNVmNRn-10">
          <mxGeometry width="80" relative="1" as="geometry">
            <mxPoint x="180" y="210" as="sourcePoint" />
            <mxPoint x="280" y="350" as="targetPoint" />
            <Array as="points">
              <mxPoint x="180" y="230" />
              <mxPoint x="250" y="230" />
              <mxPoint x="250" y="290" />
              <mxPoint x="250" y="350" />
            </Array>
          </mxGeometry>
        </mxCell>
        <mxCell id="ERlJkY3v5EZ0MZNVmNRn-138" value="" style="endArrow=classic;html=1;rounded=0;exitX=0.5;exitY=1;exitDx=0;exitDy=0;entryX=0.002;entryY=0.66;entryDx=0;entryDy=0;entryPerimeter=0;fillColor=#e51400;strokeColor=#B20000;" edge="1" parent="1" source="ERlJkY3v5EZ0MZNVmNRn-11" target="ERlJkY3v5EZ0MZNVmNRn-71">
          <mxGeometry width="50" height="50" relative="1" as="geometry">
            <mxPoint x="220" y="210" as="sourcePoint" />
            <mxPoint x="380" y="380" as="targetPoint" />
            <Array as="points">
              <mxPoint x="220" y="220" />
              <mxPoint x="260" y="220" />
              <mxPoint x="260" y="260" />
              <mxPoint x="370" y="260" />
              <mxPoint x="370" y="380" />
            </Array>
          </mxGeometry>
        </mxCell>
        <mxCell id="ERlJkY3v5EZ0MZNVmNRn-139" value="" style="endArrow=classic;html=1;rounded=0;exitX=0.5;exitY=1;exitDx=0;exitDy=0;fillColor=#e51400;strokeColor=#B20000;" edge="1" parent="1">
          <mxGeometry width="50" height="50" relative="1" as="geometry">
            <mxPoint x="260" y="200" as="sourcePoint" />
            <mxPoint x="520" y="410" as="targetPoint" />
            <Array as="points">
              <mxPoint x="260" y="210" />
              <mxPoint x="280" y="210" />
              <mxPoint x="280" y="250" />
              <mxPoint x="500" y="250" />
              <mxPoint x="500" y="410" />
            </Array>
          </mxGeometry>
        </mxCell>
        <mxCell id="ERlJkY3v5EZ0MZNVmNRn-140" value="" style="endArrow=none;html=1;rounded=0;opacity=30;" edge="1" parent="1">
          <mxGeometry width="50" height="50" relative="1" as="geometry">
            <mxPoint x="120" y="520" as="sourcePoint" />
            <mxPoint x="520" y="400" as="targetPoint" />
          </mxGeometry>
        </mxCell>
        <mxCell id="ERlJkY3v5EZ0MZNVmNRn-141" value="" style="endArrow=none;html=1;rounded=0;entryX=1;entryY=0.25;entryDx=0;entryDy=0;opacity=20;" edge="1" parent="1" target="ERlJkY3v5EZ0MZNVmNRn-111">
          <mxGeometry width="50" height="50" relative="1" as="geometry">
            <mxPoint x="640" y="520" as="sourcePoint" />
            <mxPoint x="710" y="500" as="targetPoint" />
          </mxGeometry>
        </mxCell>
        <mxCell id="ERlJkY3v5EZ0MZNVmNRn-142" value="" style="rounded=0;whiteSpace=wrap;html=1;" vertex="1" parent="1">
          <mxGeometry x="120" y="520" width="520" height="40" as="geometry" />
        </mxCell>
        <mxCell id="ERlJkY3v5EZ0MZNVmNRn-150" value="" style="endArrow=none;html=1;rounded=0;" edge="1" parent="1">
          <mxGeometry width="50" height="50" relative="1" as="geometry">
            <mxPoint x="620" y="560" as="sourcePoint" />
            <mxPoint x="620" y="520" as="targetPoint" />
          </mxGeometry>
        </mxCell>
        <mxCell id="ERlJkY3v5EZ0MZNVmNRn-151" value="" style="endArrow=none;html=1;rounded=0;" edge="1" parent="1">
          <mxGeometry width="50" height="50" relative="1" as="geometry">
            <mxPoint x="600" y="560" as="sourcePoint" />
            <mxPoint x="600" y="520" as="targetPoint" />
          </mxGeometry>
        </mxCell>
        <mxCell id="ERlJkY3v5EZ0MZNVmNRn-152" value="" style="endArrow=none;html=1;rounded=0;" edge="1" parent="1">
          <mxGeometry width="50" height="50" relative="1" as="geometry">
            <mxPoint x="579.71" y="560" as="sourcePoint" />
            <mxPoint x="579.71" y="520" as="targetPoint" />
          </mxGeometry>
        </mxCell>
        <mxCell id="ERlJkY3v5EZ0MZNVmNRn-153" value="" style="endArrow=none;html=1;rounded=0;" edge="1" parent="1">
          <mxGeometry width="50" height="50" relative="1" as="geometry">
            <mxPoint x="560" y="560" as="sourcePoint" />
            <mxPoint x="560" y="520" as="targetPoint" />
          </mxGeometry>
        </mxCell>
        <mxCell id="ERlJkY3v5EZ0MZNVmNRn-154" value="" style="endArrow=none;html=1;rounded=0;" edge="1" parent="1">
          <mxGeometry width="50" height="50" relative="1" as="geometry">
            <mxPoint x="540" y="560" as="sourcePoint" />
            <mxPoint x="540" y="520" as="targetPoint" />
          </mxGeometry>
        </mxCell>
        <mxCell id="ERlJkY3v5EZ0MZNVmNRn-155" value="" style="endArrow=none;html=1;rounded=0;" edge="1" parent="1">
          <mxGeometry width="50" height="50" relative="1" as="geometry">
            <mxPoint x="520" y="560" as="sourcePoint" />
            <mxPoint x="520" y="520" as="targetPoint" />
          </mxGeometry>
        </mxCell>
        <mxCell id="ERlJkY3v5EZ0MZNVmNRn-156" value="" style="endArrow=none;html=1;rounded=0;" edge="1" parent="1">
          <mxGeometry width="50" height="50" relative="1" as="geometry">
            <mxPoint x="499.71000000000004" y="560" as="sourcePoint" />
            <mxPoint x="499.71000000000004" y="520" as="targetPoint" />
          </mxGeometry>
        </mxCell>
        <mxCell id="ERlJkY3v5EZ0MZNVmNRn-157" value="" style="endArrow=none;html=1;rounded=0;" edge="1" parent="1">
          <mxGeometry width="50" height="50" relative="1" as="geometry">
            <mxPoint x="480" y="560" as="sourcePoint" />
            <mxPoint x="480" y="520" as="targetPoint" />
          </mxGeometry>
        </mxCell>
        <mxCell id="ERlJkY3v5EZ0MZNVmNRn-158" value="V" style="text;strokeColor=none;align=center;fillColor=none;html=1;verticalAlign=middle;whiteSpace=wrap;rounded=0;" vertex="1" parent="1">
          <mxGeometry x="620" y="520" width="20" height="40" as="geometry" />
        </mxCell>
        <mxCell id="ERlJkY3v5EZ0MZNVmNRn-159" value="R" style="text;strokeColor=none;align=center;fillColor=none;html=1;verticalAlign=middle;whiteSpace=wrap;rounded=0;" vertex="1" parent="1">
          <mxGeometry x="600" y="520" width="20" height="40" as="geometry" />
        </mxCell>
        <mxCell id="ERlJkY3v5EZ0MZNVmNRn-160" value="W" style="text;strokeColor=none;align=center;fillColor=none;html=1;verticalAlign=middle;whiteSpace=wrap;rounded=0;" vertex="1" parent="1">
          <mxGeometry x="580" y="520" width="20" height="40" as="geometry" />
        </mxCell>
        <mxCell id="ERlJkY3v5EZ0MZNVmNRn-161" value="X" style="text;strokeColor=none;align=center;fillColor=none;html=1;verticalAlign=middle;whiteSpace=wrap;rounded=0;" vertex="1" parent="1">
          <mxGeometry x="560" y="520" width="20" height="40" as="geometry" />
        </mxCell>
        <mxCell id="ERlJkY3v5EZ0MZNVmNRn-163" value="U" style="text;strokeColor=none;align=center;fillColor=none;html=1;verticalAlign=middle;whiteSpace=wrap;rounded=0;" vertex="1" parent="1">
          <mxGeometry x="540" y="520" width="20" height="40" as="geometry" />
        </mxCell>
        <mxCell id="ERlJkY3v5EZ0MZNVmNRn-164" value="G" style="text;strokeColor=none;align=center;fillColor=none;html=1;verticalAlign=middle;whiteSpace=wrap;rounded=0;" vertex="1" parent="1">
          <mxGeometry x="520" y="520" width="20" height="40" as="geometry" />
        </mxCell>
        <mxCell id="ERlJkY3v5EZ0MZNVmNRn-165" value="A" style="text;strokeColor=none;align=center;fillColor=none;html=1;verticalAlign=middle;whiteSpace=wrap;rounded=0;" vertex="1" parent="1">
          <mxGeometry x="500" y="520" width="20" height="40" as="geometry" />
        </mxCell>
        <mxCell id="ERlJkY3v5EZ0MZNVmNRn-167" value="D" style="text;strokeColor=none;align=center;fillColor=none;html=1;verticalAlign=middle;whiteSpace=wrap;rounded=0;" vertex="1" parent="1">
          <mxGeometry x="480" y="520" width="20" height="40" as="geometry" />
        </mxCell>
        <mxCell id="ERlJkY3v5EZ0MZNVmNRn-169" value="" style="endArrow=none;html=1;rounded=0;" edge="1" parent="1">
          <mxGeometry width="50" height="50" relative="1" as="geometry">
            <mxPoint x="440" y="560" as="sourcePoint" />
            <mxPoint x="440" y="520" as="targetPoint" />
          </mxGeometry>
        </mxCell>
        <mxCell id="ERlJkY3v5EZ0MZNVmNRn-170" value="RSW" style="text;strokeColor=none;align=center;fillColor=none;html=1;verticalAlign=middle;whiteSpace=wrap;rounded=0;" vertex="1" parent="1">
          <mxGeometry x="440" y="520" width="40" height="40" as="geometry" />
        </mxCell>
        <mxCell id="ERlJkY3v5EZ0MZNVmNRn-171" value="" style="endArrow=none;html=1;rounded=0;" edge="1" parent="1">
          <mxGeometry width="50" height="50" relative="1" as="geometry">
            <mxPoint x="199.66" y="560" as="sourcePoint" />
            <mxPoint x="199.66" y="520" as="targetPoint" />
          </mxGeometry>
        </mxCell>
        <mxCell id="ERlJkY3v5EZ0MZNVmNRn-172" value="Physical Page Number" style="text;strokeColor=none;align=center;fillColor=none;html=1;verticalAlign=middle;whiteSpace=wrap;rounded=0;" vertex="1" parent="1">
          <mxGeometry x="200" y="520" width="240" height="40" as="geometry" />
        </mxCell>
        <mxCell id="ERlJkY3v5EZ0MZNVmNRn-173" value="Reserved" style="text;strokeColor=none;align=center;fillColor=none;html=1;verticalAlign=middle;whiteSpace=wrap;rounded=0;" vertex="1" parent="1">
          <mxGeometry x="120" y="520" width="80" height="40" as="geometry" />
        </mxCell>
        <mxCell id="ERlJkY3v5EZ0MZNVmNRn-174" value="0" style="text;strokeColor=none;align=center;fillColor=none;html=1;verticalAlign=middle;whiteSpace=wrap;rounded=0;" vertex="1" parent="1">
          <mxGeometry x="620" y="500" width="20" height="20" as="geometry" />
        </mxCell>
        <mxCell id="ERlJkY3v5EZ0MZNVmNRn-176" value="1" style="text;strokeColor=none;align=center;fillColor=none;html=1;verticalAlign=middle;whiteSpace=wrap;rounded=0;" vertex="1" parent="1">
          <mxGeometry x="600" y="500" width="20" height="20" as="geometry" />
        </mxCell>
        <mxCell id="ERlJkY3v5EZ0MZNVmNRn-177" value="2" style="text;strokeColor=none;align=center;fillColor=none;html=1;verticalAlign=middle;whiteSpace=wrap;rounded=0;" vertex="1" parent="1">
          <mxGeometry x="580" y="500" width="20" height="20" as="geometry" />
        </mxCell>
        <mxCell id="ERlJkY3v5EZ0MZNVmNRn-178" value="3" style="text;strokeColor=none;align=center;fillColor=none;html=1;verticalAlign=middle;whiteSpace=wrap;rounded=0;" vertex="1" parent="1">
          <mxGeometry x="560" y="500" width="20" height="20" as="geometry" />
        </mxCell>
        <mxCell id="ERlJkY3v5EZ0MZNVmNRn-179" value="4" style="text;strokeColor=none;align=center;fillColor=none;html=1;verticalAlign=middle;whiteSpace=wrap;rounded=0;" vertex="1" parent="1">
          <mxGeometry x="540" y="500" width="20" height="20" as="geometry" />
        </mxCell>
        <mxCell id="ERlJkY3v5EZ0MZNVmNRn-180" value="5" style="text;strokeColor=none;align=center;fillColor=none;html=1;verticalAlign=middle;whiteSpace=wrap;rounded=0;" vertex="1" parent="1">
          <mxGeometry x="520" y="500" width="20" height="20" as="geometry" />
        </mxCell>
        <mxCell id="ERlJkY3v5EZ0MZNVmNRn-181" value="6" style="text;strokeColor=none;align=center;fillColor=none;html=1;verticalAlign=middle;whiteSpace=wrap;rounded=0;" vertex="1" parent="1">
          <mxGeometry x="500" y="500" width="20" height="20" as="geometry" />
        </mxCell>
        <mxCell id="ERlJkY3v5EZ0MZNVmNRn-182" value="7" style="text;strokeColor=none;align=center;fillColor=none;html=1;verticalAlign=middle;whiteSpace=wrap;rounded=0;" vertex="1" parent="1">
          <mxGeometry x="480" y="500" width="20" height="20" as="geometry" />
        </mxCell>
        <mxCell id="ERlJkY3v5EZ0MZNVmNRn-183" value="8" style="text;strokeColor=none;align=center;fillColor=none;html=1;verticalAlign=middle;whiteSpace=wrap;rounded=0;" vertex="1" parent="1">
          <mxGeometry x="460" y="500" width="20" height="20" as="geometry" />
        </mxCell>
        <mxCell id="ERlJkY3v5EZ0MZNVmNRn-184" value="10" style="text;strokeColor=none;align=center;fillColor=none;html=1;verticalAlign=middle;whiteSpace=wrap;rounded=0;" vertex="1" parent="1">
          <mxGeometry x="420" y="500" width="20" height="20" as="geometry" />
        </mxCell>
        <mxCell id="ERlJkY3v5EZ0MZNVmNRn-185" value="53" style="text;strokeColor=none;align=center;fillColor=none;html=1;verticalAlign=middle;whiteSpace=wrap;rounded=0;" vertex="1" parent="1">
          <mxGeometry x="180" y="500" width="20" height="20" as="geometry" />
        </mxCell>
        <mxCell id="ERlJkY3v5EZ0MZNVmNRn-186" value="63" style="text;strokeColor=none;align=center;fillColor=none;html=1;verticalAlign=middle;whiteSpace=wrap;rounded=0;" vertex="1" parent="1">
          <mxGeometry x="120" y="500" width="20" height="20" as="geometry" />
        </mxCell>
      </root>
    </mxGraphModel>
  </diagram>
</mxfile>
